PathFileType	4	(X/Y/Z)	/Users/itak/Documents/Research/Walk-IL/dataset/trc/00143_00007.trc
DataRate	CameraRate	NumFrames	NumMarkers	Units	OrigDataRate	OrigDataStartFrame	OrigNumFrames
100.000000	100.000000	4	53	mm	100.000000	334	535
Frame#	Time	RPSI			LPSI			L3			STRN			T10			C7			CLAV			RBAK			LBAK			LSHO			LUPA			LAEL			LAOL			LWTS			LWPS			LFRA			LIFD			LHPS			LHTS			RSHO			RUPA			RAEL			RAOL			RWTS			RWPS			RFRA			RIFD			RHTS			RHPS			RBHD			LFHD			RFHD			LBHD			LHIP			RHIP			RASI			LASI			LKNE			LTHI			LANK			LTIP			LTOE			LMT1			LMT5			LHEE			RKNE			RTHI			RANK			RTIP			RTOE			RMT1			RMT5			RHEE			
		X1	Y1	Z1	X2	Y2	Z2	X3	Y3	Z3	X4	Y4	Z4	X5	Y5	Z5	X6	Y6	Z6	X7	Y7	Z7	X8	Y8	Z8	X9	Y9	Z9	X10	Y10	Z10	X11	Y11	Z11	X12	Y12	Z12	X13	Y13	Z13	X14	Y14	Z14	X15	Y15	Z15	X16	Y16	Z16	X17	Y17	Z17	X18	Y18	Z18	X19	Y19	Z19	X20	Y20	Z20	X21	Y21	Z21	X22	Y22	Z22	X23	Y23	Z23	X24	Y24	Z24	X25	Y25	Z25	X26	Y26	Z26	X27	Y27	Z27	X28	Y28	Z28	X29	Y29	Z29	X30	Y30	Z30	X31	Y31	Z31	X32	Y32	Z32	X33	Y33	Z33	X34	Y34	Z34	X35	Y35	Z35	X36	Y36	Z36	X37	Y37	Z37	X38	Y38	Z38	X39	Y39	Z39	X40	Y40	Z40	X41	Y41	Z41	X42	Y42	Z42	X43	Y43	Z43	X44	Y44	Z44	X45	Y45	Z45	X46	Y46	Z46	X47	Y47	Z47	X48	Y48	Z48	X49	Y49	Z49	X50	Y50	Z50	X51	Y51	Z51	X52	Y52	Z52	X53	Y53	Z53	

335	3.34	489.1609802246094	1109.449462890625	794.7276611328125	380.7183837890625	1107.520629882812	714.634521484375	430.6089782714844	1144.285766601562	760.0921020507812	553.9075927734375	1339.473388671875	574.3948974609375	423.1285400390625	1291.232788085938	787.5147705078125	407.5473327636719	1582.841064453125	743.252197265625	517.4151000976562	1473.170043945312	594.2017211914062	465.1917419433594	1407.293212890625	845.5014038085938	319.104736328125	1553.927490234375	696.6966552734375	302.6335754394531	1533.4453125	588.9564819335938	232.2923736572266	1399.6728515625	597.701171875	209.8748779296875	1187.759399414062	631.9220581054688	248.3414916992188	1191.99755859375	712.6776733398438	263.2476196289062	913.22607421875	613.091796875	218.2922058105469	909.6687622070312	689.8807983398438	203.9374389648438	1070.907592773438	643.4581298828125	274.903564453125	722.039794921875	653.1273193359375	220.6746520996094	829.1301879882812	680.9492797851562	252.7397766113281	823.865478515625	619.9476318359375	590.0003051757812	1580.686889648438	790.1797485351562	642.8931884765625	1512.101196289062	838.1888427734375	709.4096069335938	1221.536376953125	840.9240112304688	622.0814819335938	1207.212158203125	798.433349609375	823.4619750976562	1027.726196289062	670.011474609375	817.8004760742188	992.56103515625	744.6603393554688	749.9307861328125	1157.678344726562	816.9873046875	871.9060668945312	851.531005859375	598.6508178710938	868.4996948242188	936.3177490234375	626.60791015625	861.896240234375	909.6163330078125	694.795654296875	494.7999572753906	1765.806762695312	729.704345703125	398.6136779785156	1804.808837890625	534.7661743164062	521.9273071289062	1832.375244140625	565.5679321289062	364.8544616699219	1742.574829101562	704.2763061523438	355.3958129882812	1019.15966796875	568.3768920898438	657.6871337890625	1010.336364746094	774.3807983398438	671.2904052734375	1081.44580078125	675.1709594726562	457.3843688964844	1080.703002929688	515.619140625	485.9123229980469	536.615234375	471.6523132324219	418.0474548339844	667.74951171875	507.9234619140625	543.2000732421875	30.37849044799805	467.3430786132812	469.755859375	273.5682678222656	493.6187133789062	679.9134521484375	62.46367263793945	284.4447631835938	683.3866577148438	53.16391754150391	366.3619995117188	571.3776245117188	42.20281219482422	346.3331604003906	574.0505981445312	31.1759090423584	553.7232055664062	583.91357421875	520.1378173828125	821.473876953125	644.4849243164062	795.8599243164062	775.7840576171875	382.0972290039062	80.41849517822266	1048.105224609375	543.73779296875	403.3949890136719	892.0908203125	502.953125	39.90994644165039	849.0185546875	432.74658203125	41.75107955932617	865.4497680664062	487.9861145019531	43.31838226318359	973.4930419921875	309.5337829589844	103.0399398803711	1052.316528320312	
336	3.35	494.1527099609375	1110.393920898438	785.974853515625	385.3901062011719	1108.755737304688	706.2434692382812	435.2698669433594	1145.427490234375	751.6823120117188	557.34423828125	1341.009033203125	565.2764282226562	427.7669982910156	1292.253540039062	779.1747436523438	411.3574523925781	1583.922607421875	735.4777221679688	520.8150024414062	1474.622192382812	585.681396484375	469.9618225097656	1408.233520507812	836.9640502929688	322.8441162109375	1554.853393554688	689.2110595703125	305.9167175292969	1534.6259765625	581.5638427734375	235.7986755371094	1400.77197265625	590.232421875	213.8238983154297	1188.7099609375	623.8346557617188	252.7377471923828	1192.779418945312	704.4563598632812	267.1964416503906	914.1582641601562	604.4337158203125	222.5175933837891	910.53076171875	681.2446899414062	208.0244903564453	1071.867309570312	635.2059326171875	279.0929565429688	722.951416015625	644.2445068359375	224.9567108154297	830.0238647460938	672.3362426757812	256.7659301757812	824.815673828125	611.1939086914062	594.0286865234375	1582.005981445312	781.544189453125	646.935546875	1513.367797851562	829.5140991210938	710.484619140625	1222.166748046875	833.2146606445312	623.3055419921875	1208.612670898438	789.8321533203125	824.2140502929688	1027.1279296875	663.4904174804688	817.5648193359375	992.0355224609375	738.0732421875	750.5770874023438	1157.891235351562	809.7041625976562	871.4036254882812	850.4757080078125	592.4158935546875	868.6619873046875	935.2635498046875	620.4313354492188	861.1642456054688	908.572265625	688.5225830078125	498.0877685546875	1767.019165039062	721.9635009765625	400.8835754394531	1806.250732421875	527.5958251953125	524.3215942382812	1833.897583007812	557.8450927734375	368.0660095214844	1743.684204101562	697.1597900390625	358.8699645996094	1020.726623535156	560.3991088867188	662.37548828125	1011.116516113281	764.0184936523438	675.1866455078125	1082.662109375	664.9329223632812	460.4934692382812	1082.213745117188	506.700927734375	487.3616333007812	536.78466796875	466.5280456542969	420.3701477050781	668.6219482421875	501.8060607910156	543.2041625976562	30.50514984130859	466.53369140625	470.6604614257812	273.8168029785156	490.4311828613281	681.1408081054688	58.73994064331055	282.9826354980469	684.37451171875	51.44118499755859	365.6846313476562	572.2946166992188	41.05944442749023	345.1612854003906	574.0318603515625	31.88961410522461	553.1129150390625	592.103271484375	519.8553466796875	809.445556640625	650.1853637695312	796.406982421875	764.4616088867188	385.4444274902344	86.69537353515625	1046.666015625	550.8081665039062	404.7512512207031	882.7210083007812	503.1001586914062	39.84253311157227	849.017578125	433.3603515625	42.70930099487305	864.9479370117188	488.9878540039062	44.02854537963867	972.4505615234375	313.6997680664062	111.7085113525391	1050.19140625	
337	3.36	499.0650634765625	1111.388671875	777.2698974609375	390.0206909179688	1110.061645507812	697.8938598632812	439.8182983398438	1146.631103515625	743.3278198242188	560.6743774414062	1342.600830078125	556.1548461914062	432.3103637695312	1293.341674804688	770.835205078125	415.1527709960938	1585.056518554688	727.7102661132812	524.1578979492188	1476.147094726562	577.1657104492188	474.703369140625	1409.240478515625	828.4171142578125	326.5502319335938	1555.909423828125	681.7461547851562	309.17724609375	1535.937866210938	574.179931640625	239.2297668457031	1402.0185546875	582.7279052734375	217.6787719726562	1189.778564453125	615.5955200195312	257.0425720214844	1193.616821289062	696.0791015625	271.1573791503906	915.2520751953125	595.2945556640625	226.7250823974609	911.3920288085938	672.0935668945312	212.0491943359375	1072.928955078125	626.6748046875	283.3099975585938	723.966064453125	634.6481323242188	229.2815246582031	830.9832763671875	663.1709594726562	260.812255859375	825.8978881835938	601.868896484375	598.0316772460938	1583.374267578125	772.8750610351562	650.9793701171875	1514.703857421875	820.8052978515625	711.5379638671875	1222.909912109375	825.5631103515625	624.5234985351562	1210.123657226562	781.2975463867188	824.8262939453125	1026.433349609375	657.175537109375	817.215087890625	991.526611328125	731.7391357421875	751.1887817382812	1158.1982421875	802.5302124023438	870.7236328125	849.2318725585938	586.6300659179688	868.6675415039062	934.057861328125	614.5709228515625	860.3019409179688	907.4901733398438	682.6056518554688	501.3974609375	1768.266967773438	714.2197875976562	403.1405944824219	1807.75244140625	520.4645385742188	526.6995849609375	1835.480102539062	550.1236572265625	371.30419921875	1744.828857421875	690.0756225585938	362.2289733886719	1022.312133789062	552.4862670898438	666.9505004882812	1011.966369628906	753.6289672851562	678.9629516601562	1083.963623046875	654.7033081054688	463.449951171875	1083.753051757812	497.8058776855469	488.7427673339844	536.9873657226562	461.5574340820312	422.5083312988281	669.5127563476562	495.6871337890625	543.1549072265625	30.66155052185059	465.7938842773438	471.4021911621094	274.1373901367188	487.2911987304688	682.1063232421875	55.61383438110352	281.7119140625	685.1864013671875	50.20589447021484	365.1281127929688	573.03955078125	40.19479370117188	344.1253662109375	573.9024047851562	32.43098831176758	552.5279541015625	600.8934936523438	519.5299072265625	796.794677734375	656.03564453125	797.0000610351562	752.9122924804688	389.3837280273438	93.53142547607422	1044.799560546875	558.5371704101562	406.148681640625	872.6376342773438	503.2107849121094	39.74739074707031	849.0537109375	433.9410095214844	43.63899230957031	864.3336181640625	490.164306640625	44.88893890380859	971.2623291015625	318.6230773925781	120.9985275268555	1047.47314453125	
338	3.37	503.8689880371094	1112.374877929688	768.6307983398438	394.6197509765625	1111.411499023438	689.582275390625	444.2442016601562	1147.843994140625	735.0213623046875	563.92529296875	1344.195434570312	547.071044921875	436.7244567871094	1294.447509765625	762.5122680664062	418.9237670898438	1586.184326171875	719.9535522460938	527.45654296875	1477.6943359375	568.6742553710938	479.3662109375	1410.261108398438	819.8897094726562	330.2140808105469	1557.04443359375	674.3024291992188	312.4212036132812	1537.320068359375	566.7996215820312	242.5898895263672	1403.354248046875	575.1859130859375	221.4285430908203	1190.91064453125	607.220703125	261.2246398925781	1194.460205078125	687.5640869140625	275.133056640625	916.467041015625	585.682373046875	230.9397430419922	912.2163696289062	662.4679565429688	216.0021514892578	1074.033447265625	617.8812866210938	287.5640563964844	725.0457763671875	624.31298828125	233.6585998535156	831.9537353515625	653.4515380859375	264.8937377929688	827.0740356445312	591.9697875976562	601.99560546875	1584.725830078125	764.22119140625	654.9996948242188	1516.034301757812	812.1090698242188	712.6367797851562	1223.707641601562	817.955322265625	625.80029296875	1211.666137695312	772.8671875	825.3322143554688	1025.600341796875	651.0281982421875	816.8233032226562	990.9974365234375	725.628173828125	751.8358764648438	1158.550903320312	795.439208984375	869.8789672851562	847.7567749023438	581.2485961914062	868.5313110351562	932.659423828125	608.9780883789062	859.363525390625	906.3341674804688	677.003173828125	504.7347106933594	1769.50390625	706.49169921875	405.4031372070312	1809.264404296875	513.383056640625	529.080810546875	1837.070190429688	542.4192504882812	374.5747680664062	1745.966674804688	683.0345458984375	365.4913024902344	1023.894348144531	544.6177368164062	671.388916015625	1012.834594726562	743.2643432617188	682.630859375	1085.290405273438	644.5506591796875	466.2939758300781	1085.27392578125	488.9518127441406	489.9620971679688	537.1834716796875	456.7868957519531	424.4603881835938	670.385986328125	489.6650695800781	543.0662841796875	30.80047988891602	465.1574096679688	471.9403991699219	274.4905090332031	484.33740234375	682.7635498046875	53.04988861083984	280.61962890625	685.7896118164062	49.38886260986328	364.6677856445312	573.5735473632812	39.50866317749023	343.2421264648438	573.6881713867188	32.82322311401367	551.9918212890625	610.2259521484375	519.1627807617188	783.5823364257812	662.0147094726562	797.6025390625	741.2154541015625	393.9450988769531	100.8810882568359	1042.408203125	566.9156494140625	407.5398559570312	861.8311157226562	503.2980041503906	39.61798095703125	849.1080932617188	434.48828125	44.51281356811523	863.5695190429688	491.5475769042969	45.91475296020508	969.8919067382812	324.33251953125	130.8206176757812	1044.059936523438	
